# File created by Blade
# Date/Time:  Wed Jan 28 16:58:26 2015
#---------------------------------------------------------
:version 1.10
:name HOM
:units
  mass 1.0
  length 1.000000
  angle deg
:documentation
     Acclaim Skeleton File
:root
   axis xyz
   order TX TY TZ RX RY RZ
   position 0.000000 0.000000 0.000000
   orientation 0 0 0
:bonedata
   begin
      id 1
      name Spine_dum
      direction 0.000000 1.000000 0.000000
      length 9.621153
      axis 0.0 0.0 0.0 xyz
   end
   begin
      id 2
      name LeftUpLeg_dum
      direction 1.000000 0.000000 0.000000
      length 2.700595
      axis 0.0 0.0 0.0 xyz
   end
   begin
      id 3
      name RightUpLeg_dum
      direction -1.000000 0.000000 0.000000
      length 2.700595
      axis 0.0 0.0 0.0 xyz
   end
   begin
      id 4
      name Spine
      direction 0.000000 1.000000 0.000000
      length 0.000000
      axis 0.0 0.0 0.0 xyz
      dof rx ry rz
   end
   begin
      id 5
      name Spine_dum1
      direction 0.000000 1.000000 0.000000
      length 12.771951
      axis 0.0 0.0 0.0 xyz
   end
   begin
      id 6
      name Spine_dum2
      direction 0.000000 1.000000 0.000000
      length 7.400569
      axis 0.0 0.0 0.0 xyz
   end
   begin
      id 7
      name Spine_dum3
      direction 0.000000 1.000000 0.000000
      length 7.400569
      axis 0.0 0.0 0.0 xyz
   end
   begin
      id 8
      name Head
      direction 0.000000 1.000000 0.000000
      length 4.527550
      axis 0.0 0.0 0.0 xyz
      dof rx ry rz
   end
   begin
      id 9
      name LeftShoulder
      direction 1.000000 0.000000 0.000000
      length 8.349299
      axis 0.0 0.0 -90.0 xyz
      dof rx ry rz
   end
   begin
      id 10
      name LeftArm
      direction 1.000000 0.000000 0.000000
      length 11.334839
      axis 0.0 0.0 -90.0 xyz
      dof rx ry rz
   end
   begin
      id 11
      name LeftForeArm
      direction 1.000000 0.000000 0.000000
      length 9.694182
      axis 0.0 0.0 -90.0 xyz
      dof ry rz rx
   end
   begin
      id 12
      name LeftHand
      direction 0.000000 0.000000 0.000000
      length 0.000000
      axis 0.0 0.0 -90.0 xyz
      dof rx ry rz
   end
   begin
      id 13
      name LeftHand_dum1
      direction 0.000000 0.000000 0.000000
      length 0.000000
      axis 0.0 0.0 -90.0 xyz
   end
   begin
      id 14
      name LeftHand_dum2
      direction 1.000000 0.000000 0.000000
      length 3.937000
      axis 0.0 0.0 -90.0 xyz
   end
   begin
      id 15
      name LeftHandThumb1
      direction 0.000000 0.000000 1.000000
      length 3.937000
      axis 0.0 0.0 -90.0 xyz
      dof rx rz ry
   end
   begin
      id 16
      name RightShoulder
      direction -1.000000 0.000000 0.000000
      length 8.349299
      axis 0.0 0.0 90.0 xyz
      dof rx ry rz
   end
   begin
      id 17
      name RightArm
      direction -1.000000 0.000000 0.000000
      length 11.334839
      axis 0.0 0.0 90.0 xyz
      dof rx ry rz
   end
   begin
      id 18
      name RightForeArm
      direction -1.000000 0.000000 0.000000
      length 9.694182
      axis 0.0 0.0 90.0 xyz
      dof ry rz rx
   end
   begin
      id 19
      name RightHand
      direction 0.000000 0.000000 0.000000
      length 0.000000
      axis 0.0 0.0 90.0 xyz
      dof rx ry rz
   end
   begin
      id 20
      name RightHand_dum1
      direction 0.000000 0.000000 0.000000
      length 0.000000
      axis 0.0 0.0 90.0 xyz
   end
   begin
      id 21
      name RightHand_dum2
      direction -1.000000 0.000000 0.000000
      length 3.937000
      axis 0.0 0.0 90.0 xyz
   end
   begin
      id 22
      name RightHandThumb1
      direction 0.000000 0.000000 1.000000
      length 3.937000
      axis 0.0 0.0 90.0 xyz
      dof rx rz ry
   end
   begin
      id 23
      name LeftUpLeg
      direction 0.000000 -1.000000 0.000000
      length 16.757176
      axis 0.0 0.0 0.0 xyz
      dof rx ry rz
   end
   begin
      id 24
      name LeftLeg
      direction 0.000000 -1.000000 0.000000
      length 16.759153
      axis 0.0 0.0 0.0 xyz
      dof rx ry rz
   end
   begin
      id 25
      name LeftFoot
      direction 0.000000 -0.258819 0.965926
      length 5.841289
      axis 15.0 0.0 0.0 xyz
      dof rx ry rz
   end
   begin
      id 26
      name LeftToeBase
      direction 0.000000 0.000000 1.000000
      length 2.952750
      axis 0.0 0.0 0.0 xyz
      dof rx ry rz
   end
   begin
      id 27
      name RightUpLeg
      direction 0.000000 -1.000000 0.000000
      length 16.757176
      axis 0.0 0.0 0.0 xyz
      dof rx ry rz
   end
   begin
      id 28
      name RightLeg
      direction 0.000000 -1.000000 0.000000
      length 16.759153
      axis 0.0 0.0 0.0 xyz
      dof rx ry rz
   end
   begin
      id 29
      name RightFoot
      direction 0.000000 -0.258819 0.965926
      length 5.841289
      axis 15.0 0.0 0.0 xyz
      dof rx ry rz
   end
   begin
      id 30
      name RightToeBase
      direction 0.000000 0.000000 1.000000
      length 2.952750
      axis 0.0 0.0 0.0 xyz
      dof rx ry rz
   end
:hierarchy
   begin
      root Spine_dum LeftUpLeg_dum RightUpLeg_dum
      Spine_dum Spine
      LeftUpLeg_dum LeftUpLeg
      RightUpLeg_dum RightUpLeg
      Spine Spine_dum1 Spine_dum2 Spine_dum3
      Spine_dum1 Head
      Spine_dum2 LeftShoulder
      Spine_dum3 RightShoulder
      LeftShoulder LeftArm
      LeftArm LeftForeArm
      LeftForeArm LeftHand
      LeftHand LeftHand_dum1 LeftHand_dum2
      LeftHand_dum1 LeftHandThumb1
      RightShoulder RightArm
      RightArm RightForeArm
      RightForeArm RightHand
      RightHand RightHand_dum1 RightHand_dum2
      RightHand_dum1 RightHandThumb1
      LeftUpLeg LeftLeg
      LeftLeg LeftFoot
      LeftFoot LeftToeBase
      RightUpLeg RightLeg
      RightLeg RightFoot
      RightFoot RightToeBase
   end

# File created by Blade
# Date/Time:  Wed Jan 28 16:58:32 2015
# Frame Rate: 120.000 fps
#------------------------------------------------------
:FULLY-SPECIFIED
:DEGREES
4024
root 20.391570 35.052963 -17.370695 169.750336 10.119222 -184.792883
Spine 23.015922 8.416664 0.140348
Head 65.859191 43.895290 30.924967
LeftShoulder -13.562246 12.313223 17.313795
LeftArm 20.277062 -49.137833 -56.583231
LeftForeArm -24.012713 -0.000000 47.394906
LeftHand -3.819560 -0.000000 21.688305
LeftHandThumb1 -26.253704 0.000000 33.147579
RightShoulder -25.451831 -8.670487 -18.642045
RightArm 23.944557 21.671314 49.138487
RightForeArm -7.642604 -0.000000 15.818518
RightHand -17.592799 -0.000000 3.358715
RightHandThumb1 -24.326973 -0.000000 -32.862282
LeftUpLeg 16.952378 14.355308 6.677293
LeftLeg 1.771250 -0.000000 -0.000000
LeftFoot -13.059548 10.239866 -19.671472
LeftToeBase 11.820060 -0.000000 -0.000000
RightUpLeg 8.560556 -6.399404 -15.793987
RightLeg 8.417452 -0.000000 -0.000000
RightFoot -12.113026 -9.946167 12.987623
RightToeBase 1.284295 -0.000000 -0.000000
4025
root 20.319991 35.053686 -17.358494 169.730406 10.122806 -184.924990
Spine 23.048339 8.493064 -0.072344
Head 66.098170 43.886186 31.079587
LeftShoulder -13.589447 12.328898 17.339788
LeftArm 20.265940 -49.220038 -56.503648
LeftForeArm -23.707146 -0.000000 47.162201
LeftHand -3.787624 -0.000000 21.502888
LeftHandThumb1 -26.253704 0.000000 33.147579
RightShoulder -25.503055 -8.787421 -18.621756
RightArm 24.009149 21.877064 49.228569
RightForeArm -7.821567 -0.000000 15.605047
RightHand -17.604858 -0.000000 3.629729
RightHandThumb1 -24.326973 -0.000000 -32.862282
LeftUpLeg 16.868083 14.342298 6.425041
LeftLeg 1.876299 -0.000000 -0.000000
LeftFoot -13.168779 10.220117 -19.628015
LeftToeBase 11.856058 -0.000000 -0.000000
RightUpLeg 8.497361 -6.448221 -16.035843
RightLeg 8.429516 -0.000000 -0.000000
RightFoot -12.043727 -9.870163 13.014655
RightToeBase 0.991481 -0.000000 -0.000000
4026
root 20.252165 35.054023 -17.345772 169.703789 10.145595 -185.051440
Spine 23.112810 8.652863 -0.268310
Head 66.369720 43.889098 31.429751
LeftShoulder -13.598147 12.331835 17.421923
LeftArm 20.347076 -49.287136 -56.558659
LeftForeArm -23.445215 -0.000000 46.979000
LeftHand -3.716024 -0.000000 21.753026
LeftHandThumb1 -26.253704 0.000000 33.147579
RightShoulder -25.530452 -8.759231 -18.658441
RightArm 23.848629 22.102449 49.289814
RightForeArm -7.693618 -0.000000 15.368418
RightHand -17.403789 -0.000000 3.500975
RightHandThumb1 -24.326973 -0.000000 -32.862282
LeftUpLeg 16.791336 14.459328 6.226142
LeftLeg 1.976542 -0.000000 -0.000000
LeftFoot -13.201201 10.125128 -19.517451
LeftToeBase 11.869820 -0.000000 -0.000000
RightUpLeg 8.447951 -6.487246 -16.262511
RightLeg 8.425129 -0.000000 -0.000000
RightFoot -11.992698 -9.850770 12.974811
RightToeBase 0.801421 -0.000000 -0.000000
4027
root 20.186612 35.055843 -17.332920 169.676025 10.169277 -185.177948
Spine 23.168875 8.774034 -0.460494
Head 66.596779 43.849063 31.639392
LeftShoulder -13.599934 12.292030 17.503792
LeftArm 20.223591 -49.306422 -56.475062
LeftForeArm -23.341898 -0.000000 46.964405
LeftHand -3.909079 -0.000000 21.882860
LeftHandThumb1 -26.253704 0.000000 33.147579
RightShoulder -25.569756 -8.821984 -18.705360
RightArm 23.816432 22.257969 49.416021
RightForeArm -7.643782 -0.000000 15.239454
RightHand -17.706387 -0.000000 3.606516
RightHandThumb1 -24.326973 -0.000000 -32.862282
LeftUpLeg 16.716444 14.471767 5.989353
LeftLeg 2.081991 -0.000000 -0.000000
LeftFoot -13.305543 10.109677 -19.444669
LeftToeBase 11.960355 -0.000000 -0.000000
RightUpLeg 8.401722 -6.480526 -16.482321
RightLeg 8.408884 -0.000000 -0.000000
RightFoot -11.910560 -9.803989 12.981026
RightToeBase 0.612849 -0.000000 -0.000000
4028
root 20.120791 35.057071 -17.318495 169.654170 10.194014 -185.327553
Spine 23.229903 8.891269 -0.672398
Head 66.846982 43.874919 31.790296
LeftShoulder -13.566751 11.995549 17.671873
LeftArm 19.724957 -49.203531 -56.120881
LeftForeArm -23.204990 -0.000000 46.837978
LeftHand -3.915686 0.000000 21.863933
LeftHandThumb1 -26.253704 0.000000 33.147579
RightShoulder -25.630747 -8.878456 -18.711982
RightArm 23.849246 22.477521 49.504931
RightForeArm -7.697715 -0.000000 14.949983
RightHand -17.572746 -0.000000 3.614448
RightHandThumb1 -24.326973 -0.000000 -32.862282
LeftUpLeg 16.631742 14.566481 5.752323
LeftLeg 2.194062 -0.000000 -0.000000
LeftFoot -13.361941 10.033173 -19.334742
LeftToeBase 11.986126 -0.000000 -0.000000
RightUpLeg 8.340280 -6.469464 -16.725960
RightLeg 8.393470 -0.000000 -0.000000
RightFoot -11.816466 -9.755738 13.018233
RightToeBase 0.483581 -0.000000 -0.000000
4029
root 20.059527 35.058651 -17.306470 169.627848 10.225768 -185.446467
Spine 23.288268 9.002816 -0.859479
Head 67.086873 43.891822 31.996956
LeftShoulder -13.569689 11.967171 17.755238
LeftArm 19.570211 -49.204758 -55.986907
LeftForeArm -23.116493 -0.000000 46.763447
LeftHand -3.971583 0.000000 22.191494
LeftHandThumb1 -26.253704 0.000000 33.147579
RightShoulder -25.677781 -8.917428 -18.748548
RightArm 23.872370 22.604993 49.587136
RightForeArm -7.637507 0.000000 14.723009
RightHand -17.753342 -0.000000 3.463577
RightHandThumb1 -24.326973 -0.000000 -32.862282
LeftUpLeg 16.585675 14.680559 5.564125
LeftLeg 2.256848 -0.000000 -0.000000
LeftFoot -13.386486 9.954900 -19.249007
LeftToeBase 11.984778 -0.000000 -0.000000
RightUpLeg 8.307274 -6.461345 -16.934129
RightLeg 8.343100 -0.000000 -0.000000
RightFoot -11.697641 -9.707226 13.107613
RightToeBase 0.395487 -0.000000 -0.000000
4030
root 20.002319 35.060899 -17.294871 169.605281 10.257671 -185.548216
Spine 23.352762 9.112225 -1.037157
Head 67.290415 43.895793 32.202871
LeftShoulder -13.606112 12.161574 17.760919
LeftArm 19.732192 -49.353552 -56.066047
LeftForeArm -23.025991 -0.000000 46.699183
LeftHand -4.007340 0.000000 22.376621
LeftHandThumb1 -26.253704 0.000000 33.147579
RightShoulder -25.729048 -8.951157 -18.746047
RightArm 23.881173 22.768175 49.632180
RightForeArm -7.596643 -0.000000 14.482177
RightHand -17.828130 -0.000000 3.507503
RightHandThumb1 -24.326973 -0.000000 -32.862282
LeftUpLeg 16.547556 14.764097 5.386667
LeftLeg 2.294157 -0.000000 -0.000000
LeftFoot -13.411957 9.916581 -19.163036
LeftToeBase 12.032251 -0.000000 -0.000000
RightUpLeg 8.277025 -6.442644 -17.119205
RightLeg 8.292529 -0.000000 -0.000000
RightFoot -11.564762 -9.663283 13.191729
RightToeBase 0.403793 -0.000000 -0.000000
4031
root 19.947913 35.062909 -17.282889 169.595252 10.287372 -185.633013
Spine 23.400298 9.187428 -1.206773
Head 67.495109 43.915669 32.380360
LeftShoulder -13.686461 12.384420 17.744534
LeftArm 19.926316 -49.509825 -56.157051
LeftForeArm -22.897351 0.000000 46.663515
LeftHand -4.111382 0.000000 22.497580
LeftHandThumb1 -26.253704 0.000000 33.147579
RightShoulder -25.766749 -9.006356 -18.728875
RightArm 23.950966 22.851842 49.631618
RightForeArm -7.496581 0.000000 14.203609
RightHand -17.999295 -0.000000 3.504138
RightHandThumb1 -24.326973 -0.000000 -32.862282
LeftUpLeg 16.515586 14.910169 5.252661
LeftLeg 2.314588 -0.000000 -0.000000
LeftFoot -13.392321 9.805364 -19.079523
LeftToeBase 12.003396 -0.000000 -0.000000
RightUpLeg 8.243610 -6.454568 -17.289337
RightLeg 8.230612 -0.000000 -0.000000
RightFoot -11.418548 -9.602525 13.301733
RightToeBase 0.418599 -0.000000 -0.000000
4032
root 19.894421 35.064569 -17.272493 169.562324 10.306138 -185.717176
Spine 23.477828 9.246079 -1.357973
Head 67.658186 43.946312 32.494337
LeftShoulder -13.711261 12.448717 17.798356
LeftArm 19.818905 -49.597442 -56.067488
LeftForeArm -22.712090 -0.000000 46.623333
LeftHand -4.193321 -0.000000 22.470072
LeftHandThumb1 -26.253704 0.000000 33.147579
RightShoulder -25.750153 -8.916976 -18.812693
RightArm 23.847572 23.000554 49.623220
RightForeArm -7.525523 -0.000000 13.897154
RightHand -17.933213 -0.000000 3.626004
RightHandThumb1 -24.326973 -0.000000 -32.862282
LeftUpLeg 16.516837 15.062150 5.126805
LeftLeg 2.314492 -0.000000 -0.000000
LeftFoot -13.376117 9.721947 -18.958770
LeftToeBase 12.028027 -0.000000 -0.000000
RightUpLeg 8.239460 -6.473416 -17.465121
RightLeg 8.167102 -0.000000 -0.000000
RightFoot -11.268811 -9.538314 13.418834
RightToeBase 0.469456 -0.000000 -0.000000
4033
root 19.842713 35.064142 -17.266690 169.504458 10.318699 -185.808239
Spine 23.583840 9.313094 -1.502147
Head 67.816127 43.991948 32.615707
LeftShoulder -13.688250 12.194860 17.987389
LeftArm 19.270567 -49.501778 -55.717799
LeftForeArm -22.680956 -0.000000 46.594828
LeftHand -4.150084 0.000000 22.662750
LeftHandThumb1 -26.253704 0.000000 33.147579
RightShoulder -25.816031 -8.936220 -18.851626
RightArm 23.898230 23.120044 49.648810
RightForeArm -7.468506 -0.000000 13.624700
RightHand -18.013012 -0.000000 3.719491
RightHandThumb1 -24.326973 -0.000000 -32.862282
LeftUpLeg 16.566883 15.234073 5.011105
LeftLeg 2.289963 -0.000000 -0.000000
LeftFoot -13.377437 9.605096 -18.868312
LeftToeBase 12.053107 -0.000000 -0.000000
RightUpLeg 8.268537 -6.511127 -17.659771
RightLeg 8.107460 -0.000000 -0.000000
RightFoot -11.118945 -9.424719 13.514751
RightToeBase 0.538005 -0.000000 -0.000000
4034
root 19.798668 35.064163 -17.255542 169.481242 10.303044 -185.845450
Spine 23.658960 9.345517 -1.614485
Head 67.913596 44.002227 32.727558
LeftShoulder -13.738027 12.459398 17.972510
LeftArm 19.543146 -49.763545 -55.916362
LeftForeArm -22.493203 -0.000000 46.579578
LeftHand -4.181876 -0.000000 22.751845
LeftHandThumb1 -26.253704 0.000000 33.147579
RightShoulder -25.850604 -8.989531 -18.848791
RightArm 23.980347 23.337698 49.668021
RightForeArm -7.566496 -0.000000 13.269359
RightHand -17.890980 -0.000000 3.880688
RightHandThumb1 -24.326973 -0.000000 -32.862282
LeftUpLeg 16.570512 15.279004 4.912107
LeftLeg 2.265571 -0.000000 -0.000000
LeftFoot -13.406376 9.583416 -18.785196
LeftToeBase 12.113336 -0.000000 -0.000000
RightUpLeg 8.282738 -6.572989 -17.780115
RightLeg 8.040828 -0.000000 -0.000000
RightFoot -10.957214 -9.329046 13.717308
RightToeBase 0.760189 -0.000000 -0.000000
4035
root 19.756386 35.063914 -17.241075 169.476138 10.271678 -185.875692
Spine 23.726532 9.329876 -1.735871
Head 68.106234 44.103101 32.928681
LeftShoulder -13.839649 12.553116 17.992573
LeftArm 19.682948 -49.923180 -55.999553
LeftForeArm -22.287154 -0.000000 46.479426
LeftHand -4.167822 -0.000000 22.931273
LeftHandThumb1 -26.253704 0.000000 33.147579
RightShoulder -25.841593 -8.989972 -18.907642
RightArm 23.987780 23.540662 49.738499
RightForeArm -7.555708 -0.000000 13.025498
RightHand -17.985965 0.000000 3.804221
RightHandThumb1 -24.326973 -0.000000 -32.862282
LeftUpLeg 16.548679 15.266356 4.799820
LeftLeg 2.231533 -0.000000 -0.000000
LeftFoot -13.471024 9.604723 -18.756644
LeftToeBase 12.231945 -0.000000 -0.000000
RightUpLeg 8.277192 -6.686629 -17.904128
RightLeg 7.969990 -0.000000 -0.000000
RightFoot -10.797697 -9.217783 13.763684
RightToeBase 1.273836 -0.000000 -0.000000
4036
root 19.712372 35.062559 -17.227521 169.466975 10.235225 -185.950713
Spine 23.792692 9.353938 -1.882938
Head 68.175483 44.156691 33.016514
LeftShoulder -13.827266 12.205467 18.194360
LeftArm 19.139768 -49.826668 -55.603386
LeftForeArm -22.255892 -0.000000 46.348465
LeftHand -4.169157 0.000000 23.002142
LeftHandThumb1 -26.253704 0.000000 33.147579
RightShoulder -25.848931 -8.936325 -18.977071
RightArm 23.884894 23.742517 49.710723
RightForeArm -7.662495 -0.000000 12.721075
RightHand -17.701369 -0.000000 4.076233
RightHandThumb1 -24.326973 -0.000000 -32.862282
LeftUpLeg 16.514111 15.352353 4.672101
LeftLeg 2.230779 -0.000000 -0.000000
LeftFoot -13.592539 9.485011 -18.857443
LeftToeBase 12.528181 -0.000000 -0.000000
RightUpLeg 8.259723 -6.818122 -18.077405
RightLeg 7.927336 -0.000000 -0.000000
RightFoot -10.648431 -9.098624 13.806154
RightToeBase 1.814190 -0.000000 -0.000000
